<svg xmlns="http://www.w3.org/2000/svg" width="1024" height="1024" viewBox="0 0 1024 1024">
  <defs>
    <linearGradient id="base" x1="0" y1="0" x2="0.8" y2="1">
      <stop stop-color="#343c49"/>
      <stop offset="1" stop-color="#171d27"/>
    </linearGradient>
    <linearGradient id="active" x1="0" y1="0" x2="1" y2="1">
      <stop stop-color="#83b7ff"/>
      <stop offset="1" stop-color="#4b8cf5"/>
    </linearGradient>
  </defs>
  <rect x="56" y="56" width="912" height="912" rx="210" fill="url(#base)"/>
  <!-- Four terminal panes, following the Grid mark in src/renderer/icons.js. -->
  <g fill="#f2f5fa">
    <rect x="216" y="216" width="272" height="272" rx="60"/>
    <rect x="536" y="216" width="272" height="272" rx="60"/>
    <rect x="216" y="536" width="272" height="272" rx="60"/>
    <rect x="536" y="536" width="272" height="272" rx="60" fill="url(#active)"/>
  </g>
  <g fill="none" stroke="#303a49" stroke-width="22" stroke-linecap="round" stroke-linejoin="round">
    <path d="m278 305 43 43-43 43m69 0h52"/>
    <path d="m598 305 43 43-43 43m69 0h52"/>
    <path d="m278 625 43 43-43 43m69 0h52"/>
    <path d="m598 625 43 43-43 43m69 0h52" stroke="#fff"/>
  </g>
</svg>
